<svg xmlns="http://www.w3.org/2000/svg" viewBox="0 0 196 148" fill="none" stroke-linecap="round" stroke-linejoin="round" role="img" aria-labelledby="title">
  <title id="title">The Workhorse: crouched hockey player skating with a stick and a clock</title>
  <circle cx="158" cy="28" r="17" fill="#fff" stroke="#283447" stroke-width="4"/>
  <path d="M158 17v12l8 5" stroke="#C9542F" stroke-width="4"/>
  <circle cx="115" cy="16" r="14" fill="#283447"/>
  <path d="M72 19c-12 0-23 7-25 15-2 7 4 16 13 21l18 12 16 12 10-10 11-20c7-13 7-19 0-23-8-5-27-7-43-7zM66 36l14 14-9 13-5-5 7-9-13-12z" fill="#283447" fill-rule="evenodd"/>
  <path d="M109 37c7 2 10 6 8 13l-13 28-8 8-9-6 10-19 7-20z" fill="#283447"/>
  <path d="M80 68L55 98 12 123l13 13 45-27 24-30z" fill="#283447"/>
  <path d="M91 69l14 9-22 31-7 20 24 3v10H65c-4 0-6-3-5-7l9-31z" fill="#283447"/>
  <path d="M3 125l12-8 18 18-9 8-18-8z" fill="#283447"/>
  <path d="M6 138l19 6M66 143h36" stroke="#283447" stroke-width="4"/>
  <path d="M64 61l96 67" stroke="#283447" stroke-width="4.5"/>
  <path d="M159 128c7 6 15 6 27 5" stroke="#283447" stroke-width="6"/>
  <ellipse cx="185" cy="142" rx="6" ry="2.5" fill="#283447"/>
</svg>
